<svg width="186" height="36" viewBox="0 0 186 36" fill="none" xmlns="http://www.w3.org/2000/svg">
<path fill-rule="evenodd" clip-rule="evenodd" d="M88.7471 8.71535V26.1967H93.5291V13.1072L102.482 26.1967H109.783V8.71535H105.003V21.1165L96.4839 8.71535H88.7471ZM121.604 8.71535V26.1967H126.385V13.1072L135.339 26.1967H142.64V8.71535H137.859V21.1165L129.34 8.71535H121.604ZM117.954 26.1967V8.71535H113.173V26.1967H117.954ZM54.0654 8C62.2359 8 65.2521 12.2532 65.2521 17.5C65.2521 22.7451 62.2359 26.9991 54.0654 26.9991C45.8949 26.9991 42.8795 22.7451 42.8795 17.5C42.8787 12.2532 45.894 8 54.0654 8ZM54.0654 10.9231C50.0668 10.9231 48.6355 13.8674 48.6355 17.5C48.6355 21.1318 50.0668 24.076 54.0654 24.076C58.064 24.076 59.4953 21.1318 59.4953 17.5C59.4953 13.8674 58.064 10.9231 54.0654 10.9231ZM34.6595 19.3907C34.1909 22.1008 32.5915 24.076 29.2184 24.076C25.1004 24.076 23.6255 21.1318 23.6255 17.5C23.6255 13.8674 25.1004 10.9231 29.2184 10.9231C32.4105 10.9231 34.0143 12.6921 34.5742 15.1789L40.5145 15.173C39.6652 11.0508 36.3469 8.00085 29.2184 8.00085C20.803 8.00085 17.6963 12.2541 17.6963 17.5009C17.6963 22.7459 20.803 27 29.2184 27C36.5824 27 39.8812 23.7429 40.5913 19.4144L34.6595 19.3907ZM156.648 24.076C152.529 24.076 151.055 21.1318 151.055 17.5C151.055 13.8674 152.529 10.9231 156.648 10.9231C159.408 10.9231 160.98 12.2456 161.719 14.2124L167.696 14.22C166.548 10.59 163.214 8.00085 156.648 8.00085C148.232 8.00085 145.126 12.2541 145.126 17.5009C145.126 22.7459 148.232 27 156.648 27C160.025 26.9721 164.111 25.9397 167.586 23.1831V16.7246H157.069V19.9978H162.024V22.4948C160.98 23.1831 159.616 24.0219 156.648 24.076ZM73.0148 19.3941H78.6647C79.0991 19.3941 79.6207 19.7374 79.7948 20.3403L80.5777 25.3359C80.5777 25.5938 80.8385 26.1967 81.3602 26.1967H86.5761C86.4016 25.8534 85.9672 24.9055 85.8809 24.3026L85.1857 20.1686C84.9253 18.7912 83.7953 17.5 82.4039 17.3267C84.3165 16.5521 85.8809 14.916 85.8809 12.9356C85.8809 10.9544 83.9684 8.71535 80.6654 8.71535H67.6249V26.1967H73.0139L73.0148 19.3941ZM73.0148 11.8981H78.0563C78.6105 11.8981 79.1422 12.1162 79.5339 12.5045C79.9261 12.8927 80.1462 13.4194 80.1462 13.9685C80.1462 14.5176 79.9261 15.0442 79.5339 15.4325C79.1422 15.8207 78.6105 16.0389 78.0563 16.0389L73.0148 16.0355V11.8981Z" fill="white"/>
</svg>
