<svg width="95" height="36" viewBox="0 0 95 36" fill="none" xmlns="http://www.w3.org/2000/svg">
<g clip-path="url(#clip0_32_1700)">
<path d="M1.29224 9.28718H8.04226C12.3508 9.28718 15.0795 12.734 15.0795 17.4734C15.0795 20.0585 14.2177 22.3564 12.4943 23.7926C11.3455 24.7978 9.76559 25.3723 7.755 25.3723H1.29224V9.28718ZM7.53957 22.5718C10.6273 22.5718 11.7763 20.7048 11.7763 17.5452C11.7763 14.3857 10.4119 12.1595 7.61139 12.1595H4.52362V22.6436H7.53957V22.5718ZM15.5821 19.6277C15.5821 16.1809 18.0236 13.5239 21.614 13.5239C25.2045 13.5239 27.646 16.1809 27.646 19.6277C27.646 23.0744 25.2045 25.7314 21.614 25.7314C18.0236 25.7314 15.5821 23.0026 15.5821 19.6277ZM24.4864 19.6277C24.4864 17.4016 23.4093 15.8218 21.5422 15.8218C19.6752 15.8218 18.5981 17.3298 18.5981 19.6277C18.5981 21.9255 19.6034 23.3617 21.5422 23.3617C23.4811 23.3617 24.4864 21.8537 24.4864 19.6277ZM28.2204 19.6277C28.2204 16.1809 30.4465 13.5239 33.9651 13.5239C36.9811 13.5239 38.7763 15.2474 39.2071 17.7607H36.1912C35.9758 16.7553 35.1859 15.9655 34.1087 15.9655C32.2417 15.9655 31.3082 17.4016 31.3082 19.6277C31.3082 21.7819 32.1699 23.2899 34.0369 23.2899C35.2576 23.2899 36.1194 22.6436 36.3348 21.351H39.3507C39.1353 23.7926 37.2683 25.7314 34.1806 25.7314C30.5183 25.6596 28.2204 23.0026 28.2204 19.6277ZM47.3933 25.3723V24.008H47.3215C46.5316 25.0851 45.6699 25.6596 44.0182 25.6596C41.4332 25.6596 39.997 24.0079 39.997 21.4947V13.8112H43.0129V20.9921C43.0129 22.3564 43.5874 23.0744 44.9518 23.0744C46.3879 23.0744 47.2497 21.9973 47.2497 20.4893V13.8112H50.3374V25.3006H47.3933V25.3723ZM65.2018 9.35902H68.2896V12.2314H65.2018V9.35902ZM65.2018 13.8112H68.2896V25.3006H65.2018V13.8112ZM69.5103 25.6596H72.5263C72.7414 26.3776 73.4599 26.9521 74.8243 26.9521C76.5474 26.9521 77.4091 26.0905 77.4091 24.5824V23.2899H77.3371C76.6914 24.0797 75.7579 24.6542 74.3215 24.6542C71.7365 24.6542 69.2231 22.6436 69.2231 19.125C69.2231 15.6782 71.3057 13.5239 74.1777 13.5239C75.6141 13.5239 76.6914 14.0984 77.3371 15.032H77.4091V13.8112H80.3536V24.4388C80.3536 26.0905 79.8504 27.1675 78.9886 27.9575C78.0549 28.891 76.5474 29.25 74.8243 29.25C71.8084 29.25 69.8693 27.9574 69.5103 25.6596ZM77.6244 19.0532C77.6244 17.4016 76.6906 15.9655 74.8963 15.9655C73.316 15.9655 72.3105 17.1862 72.3105 19.125C72.3105 21.0638 73.316 22.2128 74.8963 22.2128C76.8346 22.2128 77.6244 20.7766 77.6244 19.0532ZM84.7336 15.391C85.5954 14.1703 86.6724 13.5239 88.1799 13.5239C90.5499 13.5239 92.1294 15.3191 92.1294 17.8324V25.3723H89.0416V18.3351C89.0416 17.1144 88.3239 16.2527 87.0316 16.2527C85.6674 16.2527 84.6616 17.3298 84.6616 18.9096V25.4441H81.7179V13.9547H84.7336V15.391ZM58.2364 15.6781C55.8667 15.1756 54.7896 14.7446 54.7896 13.4521C54.7896 12.3032 55.9384 11.5851 57.6619 11.5851C59.2417 11.5851 60.4624 12.3032 60.7497 13.8112H63.9092C63.5503 10.7234 61.2523 9 57.6619 9C54.0715 9 51.4864 10.6516 51.4864 13.8112C51.4864 17.1862 54.1432 17.9043 57.0157 18.5505C59.4571 19.125 60.9651 19.4122 60.9651 20.9921C60.9651 22.5 59.5289 23.0744 57.8773 23.0744C55.5795 23.0744 54.5023 22.2845 54.2869 20.3457H51.1273C51.271 23.7208 53.7124 25.6596 58.0928 25.6596C61.6832 25.6596 64.3401 23.8643 64.3401 20.5612C64.2682 17.1862 61.5395 16.3963 58.2364 15.6781ZM93.4224 15.9655C92.7766 15.9655 92.2014 15.391 92.2014 14.7446C92.2014 14.0984 92.7766 13.5239 93.4224 13.5239C94.0689 13.5239 94.6434 14.0984 94.6434 14.7446C94.6434 15.391 94.0689 15.9655 93.4224 15.9655ZM93.4224 13.7393C92.8479 13.7393 92.4174 14.1703 92.4174 14.7446C92.4174 15.3191 92.8479 15.75 93.4224 15.75C93.9969 15.75 94.4274 15.3191 94.4274 14.7446C94.4274 14.1703 93.9969 13.7393 93.4224 13.7393Z" fill="white"/>
<path d="M92.9924 14.0996H93.4237C93.5669 14.0996 93.7102 14.0996 93.7822 14.1714C93.8542 14.2432 93.9262 14.3151 93.9262 14.4586C93.9262 14.6741 93.7822 14.7459 93.7102 14.8177L93.9982 15.3204H93.7102L93.4949 14.8895H93.2084V15.3204H92.9924V14.0996ZM93.2084 14.3151V14.6741H93.4237C93.4957 14.6741 93.6389 14.6741 93.6389 14.4586C93.6389 14.4586 93.6389 14.3151 93.5669 14.3151H93.2084Z" fill="white"/>
</g>
<defs>
<clipPath id="clip0_32_1700">
<rect width="93.75" height="36" fill="white" transform="translate(0.94165)"/>
</clipPath>
</defs>
</svg>
