<svg width="204" height="36" viewBox="0 0 204 36" fill="none" xmlns="http://www.w3.org/2000/svg">
<path d="M-0.012207 0L17.7399 8.69854V26.4506L-0.012207 17.7521V0ZM35.6696 0L53.2441 8.69854L35.6696 17.7521V0Z" fill="white"/>
<path d="M35.6696 0L17.74 8.69854V26.4506L35.6696 17.7521V0ZM53.2443 8.69854L35.6696 17.7521V35.5043L53.2443 26.4506V8.69854Z" fill="white"/>
<path d="M79.9646 1.56222C84.9286 1.56222 87.7303 4.47046 87.7303 8.42656C87.7617 9.61031 87.4213 10.7742 86.7571 11.7546C86.0929 12.7348 85.1383 13.4825 84.0272 13.8922C86.5093 14.505 88.5206 16.7694 88.5206 19.9352C88.5206 24.0689 85.4125 27.0393 80.6484 27.0393H70.7959V1.56222H79.9646ZM79.232 12.094C81.4965 12.094 82.864 10.8375 82.864 8.8972C82.864 6.95689 81.5808 5.74032 79.1743 5.74032H75.6799V12.1029L79.232 12.094ZM79.7337 22.9189C82.1447 22.9189 83.5833 21.6579 83.5833 19.611C83.5833 17.5641 82.2867 16.1922 79.8092 16.1922H75.6799V22.9189H79.7337ZM102.258 25.1478C101.285 26.7995 99.2343 27.5188 97.374 27.5188C93.0981 27.5188 90.6519 24.4107 90.6519 20.5435V9.36344H95.4246V19.5756C95.4246 21.5513 96.4326 23.1276 98.6619 23.1276C100.784 23.1276 102.005 21.689 102.005 19.6422V9.36344H106.787V23.8513C106.788 24.9208 106.847 25.9895 106.964 27.0526H102.4C102.303 26.4223 102.256 25.7855 102.258 25.1478ZM113.008 0.589844C113.589 0.589886 114.158 0.761941 114.641 1.08435C115.126 1.40676 115.504 1.86512 115.728 2.40177C115.952 2.93842 116.012 3.52937 115.901 4.10027C115.791 4.67118 115.513 5.19652 115.105 5.61021C114.695 6.02391 114.173 6.30746 113.605 6.4252C113.035 6.54294 112.443 6.48959 111.904 6.27188C111.364 6.05418 110.902 5.68184 110.573 5.20171C110.245 4.72158 110.067 4.1551 110.059 3.57357C110.055 3.18343 110.127 2.79623 110.274 2.43443C110.419 2.07263 110.636 1.74342 110.91 1.46587C111.184 1.18834 111.511 0.967986 111.871 0.817612C112.231 0.667235 112.617 0.589815 113.008 0.589844ZM110.632 27.0526V9.36344H115.414V27.0526H110.632ZM119.264 27.0526V1.02053H124.045V27.0526H119.264ZM144.421 23.8513C144.421 25.0413 144.492 26.3333 144.567 27.0526H139.999C139.883 26.375 139.823 25.6888 139.821 25.0013C139.026 26.4044 137.232 27.4833 134.857 27.4833C129.822 27.4833 126.23 23.5272 126.23 18.1591C126.23 12.9821 129.715 8.9194 134.715 8.9194C137.77 8.9194 139.209 10.176 139.71 11.1128V1.02053H144.421V23.8513ZM135.434 23.2075C137.877 23.2075 139.786 21.3338 139.786 18.137C139.786 14.9401 137.877 13.2085 135.434 13.2085C132.992 13.2085 131.047 15.0067 131.047 18.1725C131.047 21.3382 132.917 23.2075 135.434 23.2075ZM158.074 16.8049L165.302 27.0526H159.442L154.766 20.2948L152.791 22.3773V27.0526H148.009V1.02053H152.791V15.9524L158.9 9.37226H165.16L158.074 16.8049ZM169.551 0.589844C170.134 0.589886 170.701 0.761941 171.186 1.08435C171.67 1.40676 172.048 1.86512 172.272 2.40177C172.496 2.93842 172.556 3.52937 172.446 4.10027C172.335 4.67118 172.058 5.19652 171.648 5.61021C171.24 6.02391 170.718 6.30746 170.148 6.4252C169.579 6.54294 168.987 6.48959 168.448 6.27188C167.909 6.05418 167.445 5.68184 167.118 5.20171C166.789 4.72158 166.61 4.1551 166.604 3.57357C166.598 3.18343 166.671 2.79623 166.818 2.43443C166.964 2.07263 167.18 1.74342 167.454 1.46587C167.729 1.18834 168.055 0.967986 168.415 0.817612C168.775 0.667235 169.162 0.589815 169.551 0.589844ZM167.181 27.0526V9.36344H171.962V27.0526H167.181ZM174.658 9.36344C176.527 9.36344 177.393 8.13794 177.393 6.55728V4.07529H181.704V9.36344H185.256V13.6037H181.704V21.0141C181.704 22.5592 182.423 23.061 183.791 23.061C184.286 23.0658 184.78 23.0181 185.265 22.9189V26.875C184.404 27.1959 183.489 27.3467 182.57 27.319C179.116 27.319 176.957 25.2677 176.957 21.8533V13.6037H174.658M203.745 21.9821C202.857 25.0413 200.041 27.5899 195.69 27.5899C190.837 27.5899 186.557 24.1044 186.557 18.137C186.557 12.4892 190.731 8.81284 195.26 8.81284C200.725 8.81284 203.998 12.3027 203.998 17.9816C203.998 18.6653 203.927 19.3847 203.927 19.4557H191.268C191.379 21.7956 193.354 23.4828 195.73 23.4828C197.95 23.4828 199.18 22.3683 199.753 20.7877L203.745 21.9821ZM199.304 16.21C199.233 14.4339 198.083 12.7246 195.349 12.7246C194.369 12.6888 193.413 13.0305 192.678 13.6789C191.942 14.3275 191.483 15.2334 191.397 16.21H199.304Z" fill="white"/>
</svg>
