<svg width="135" height="36" viewBox="0 0 135 36" fill="none" xmlns="http://www.w3.org/2000/svg">
<g clip-path="url(#clip0_32_1698)">
<path d="M49.34 26.9439H52.4039L51.8841 24.5639V10.4208H48.957V16.8769C48.0816 15.8647 46.8505 15.2628 45.4281 15.2628C42.5009 15.2628 40.2304 17.6976 40.2304 21.2265C40.2304 24.7828 42.5009 27.1902 45.4281 27.1902C46.8779 27.1902 48.1364 26.5609 49.0117 25.494L49.34 26.9439ZM107.226 18.4361C107.828 18.4361 108.375 18.6003 108.867 18.9559L110.263 15.8373C109.606 15.427 108.867 15.2628 108.129 15.2628C106.815 15.2628 105.694 15.8647 105.01 16.9862L104.709 15.5364H101.7L102.192 17.7796V26.9713H105.12V19.6672C105.503 18.9012 106.241 18.4361 107.226 18.4361ZM115.788 24.1262C114.092 24.1262 112.834 23.0046 112.834 21.2539C112.834 19.4757 114.092 18.3814 115.788 18.3814C117.512 18.3814 118.743 19.4757 118.743 21.2539C118.743 22.9773 117.512 24.1262 115.788 24.1262ZM43.0754 21.2265C43.0754 19.4483 44.3338 18.3541 46.0299 18.3541C47.7533 18.3541 48.9844 19.4483 48.9844 21.2265C48.9844 22.9773 47.7533 24.0989 46.0299 24.0989C44.3338 24.1262 43.0754 22.9773 43.0754 21.2265ZM128.782 24.1262C127.087 24.1262 125.828 23.0046 125.828 21.2539C125.828 19.4757 127.087 18.3814 128.782 18.3814C130.506 18.3814 131.737 19.4757 131.737 21.2539C131.71 22.9773 130.479 24.1262 128.782 24.1262ZM59.5165 18.19C61.0211 18.19 62.0059 18.9012 62.3342 20.2143H56.6988C56.9998 18.8738 58.0119 18.19 59.5165 18.19ZM94.5051 18.19C96.0099 18.19 96.9942 18.9012 97.3225 20.2143H91.6877C92.0434 18.8738 93.0276 18.19 94.5051 18.19ZM80.225 26.9439H84.9303L87.994 15.4817H84.7935L82.578 24.7828L80.3345 15.5091H77.1887L80.225 26.9439ZM72.7023 26.9439H75.6292V15.4817H72.7023V26.9439ZM59.9542 27.1628C61.5956 27.1628 63.1822 26.6978 64.5227 25.8497L63.4011 23.3329C62.3616 23.9074 61.1579 24.2083 59.9816 24.2083C58.4496 24.2083 57.3827 23.6065 56.8903 22.4849H65.1519C65.234 22.0472 65.2887 21.6642 65.2887 21.1444C65.2887 17.5881 62.8266 15.2355 59.5712 15.2355C56.2611 15.2355 53.8538 17.6428 53.8538 21.1991C53.8264 24.8375 56.2338 27.1628 59.9542 27.1628ZM134.555 21.2265C134.555 17.6702 132.093 15.2628 128.782 15.2628C125.445 15.2628 123.011 17.6976 123.011 21.2265C123.011 24.7554 125.472 27.1902 128.782 27.1902C132.093 27.1902 134.555 24.7828 134.555 21.2265ZM94.9155 27.1902C96.5571 27.1902 98.1433 26.7525 99.484 25.8771L98.3622 23.3603C97.3225 23.9348 96.1194 24.2357 94.9429 24.2357C93.4107 24.2357 92.3443 23.6339 91.8518 22.5122H100.113C100.195 22.0745 100.25 21.6916 100.25 21.1718C100.25 17.6155 97.7877 15.2628 94.5325 15.2628C91.2225 15.2628 88.8148 17.6702 88.8148 21.2265C88.8148 24.8922 91.1952 27.1902 94.9155 27.1902ZM115.788 27.1902C119.126 27.1902 121.56 24.7554 121.56 21.2265C121.56 17.6976 119.099 15.2628 115.788 15.2628C112.451 15.2628 110.016 17.6976 110.016 21.2265C110.016 24.7554 112.451 27.1902 115.788 27.1902ZM67.1489 26.9439H70.076V10.4208H67.1489V26.9439ZM74.1798 13.9224C75.1914 13.9224 76.0122 13.1017 76.0122 12.0621C76.0122 11.0226 75.2188 10.2019 74.1798 10.2019C73.1401 10.2019 72.3192 11.0226 72.3192 12.0621C72.3192 13.1017 73.1127 13.9224 74.1798 13.9224ZM23.8714 -0.00195312L22.2026 15.8647L19.3576 2.48747L10.3848 4.37505L13.2024 17.7523L0.290283 20.4878L2.58821 31.1568L25.3212 35.9988L30.5189 24.3725L32.981 0.955517L23.8714 -0.00195312ZM16.6767 23.032C16.2116 23.4697 15.6098 23.415 14.9258 23.1962C14.2693 22.9773 13.9958 22.2113 14.2146 21.2265C14.4061 20.5152 15.2542 20.4058 15.7192 20.4058C15.8833 20.4058 16.0475 20.4332 16.2116 20.5152C16.5125 20.652 17.0323 20.9529 17.1418 21.3906C17.3058 22.0472 17.1418 22.5943 16.6767 23.032ZM23.2695 23.7432C22.9139 24.3451 22.0385 24.4272 21.1358 23.9895C20.5339 23.6885 20.5339 22.9773 20.616 22.5122C20.6433 22.2661 20.7527 22.0198 20.9169 21.8284C21.1358 21.5548 21.4914 21.1991 21.8743 21.1991C22.5582 21.1718 23.1054 21.4727 23.4337 22.0198C23.7619 22.5669 23.5978 23.1688 23.2695 23.7432Z" fill="white"/>
</g>
<defs>
<clipPath id="clip0_32_1698">
<rect width="134.643" height="36" fill="white" transform="translate(0.290283)"/>
</clipPath>
</defs>
</svg>
