<svg width="97" height="36" viewBox="0 0 97 36" fill="none" xmlns="http://www.w3.org/2000/svg">
<path d="M21.0991 8.96297H16.9324C16.5249 8.96297 16.062 9.27774 15.8954 9.66663L11.5991 21.1297C11.4509 21.5185 11.2102 21.5185 11.0435 21.1297L6.74721 9.66663C6.59906 9.27774 6.1361 8.96297 5.71017 8.96297H1.56202C1.1361 8.96297 0.932392 9.27774 1.08054 9.66663L8.21017 27.463C8.35832 27.8519 8.63609 28.1667 9.06202 28.1667H13.6176C14.025 28.1667 14.3028 27.8519 14.4694 27.463L21.5991 9.66663C21.7287 9.27774 21.525 8.96297 21.0991 8.96297ZM20.2842 32.0185H2.59906C2.30277 32.0185 2.06203 32.2592 2.06203 32.5555V33.463C2.06203 33.7593 2.30277 34 2.59906 34H20.2657C20.562 34 20.8027 33.7593 20.8027 33.463V32.5555C20.8027 32.2592 20.562 32.0185 20.2842 32.0185ZM62.8398 8.96297H58.6546C58.2287 8.96297 57.8953 9.29628 57.8953 9.72225V27.4259C57.8953 27.8518 58.2287 28.1852 58.6546 28.1852H62.8398C63.2472 28.1852 63.5991 27.8518 63.5991 27.4259V9.72225C63.5991 9.29628 63.2657 8.96297 62.8398 8.96297ZM72.6361 1.51852H68.4509C68.0435 1.51852 67.6917 1.85185 67.6917 2.27777V27.4259C67.6917 27.8518 68.025 28.1852 68.4509 28.1852H72.6361C73.0435 28.1852 73.3954 27.8518 73.3954 27.4259V2.27777C73.3769 1.87037 73.0435 1.51852 72.6361 1.51852ZM60.7473 0C58.9879 0 57.5435 1.44445 57.5435 3.2037C57.5435 4.96296 58.9879 6.40741 60.7473 6.40741C62.5065 6.40741 63.9509 4.96296 63.9509 3.2037C63.9509 1.44445 62.525 0 60.7473 0ZM31.2657 8.68519C30.062 8.68519 28.8954 8.92592 27.8028 9.38889C26.6916 9.85185 25.7102 10.5185 24.8583 11.3889C23.9879 12.2778 23.2842 13.3148 22.8213 14.5C22.3213 15.7407 22.062 17.1111 22.062 18.5556C22.062 20.074 22.3213 21.5 22.8398 22.7777C23.3398 23.9815 24.0435 25.037 24.9695 25.9259C26.7287 27.6296 29.1361 28.5556 31.7287 28.5556C35.1176 28.5556 37.9509 27.0555 39.488 24.4259C39.488 24.4259 39.5064 24.3889 39.5435 24.3333C39.5805 24.2778 39.3028 24.0926 38.9509 23.9074L35.988 22.4259C35.6361 22.2407 35.3213 22.1297 35.2843 22.1852L35.2287 22.2592C34.488 23.3518 33.3213 23.9074 31.7472 23.9074C29.6917 23.9074 27.9139 22.6111 27.4509 20.7408C27.4509 20.7408 27.4139 20.6111 27.3769 20.4445C27.3398 20.2778 27.6176 20.1481 28.025 20.1481H39.8027C40.2102 20.1481 40.525 19.8333 40.525 19.426V18.4074C40.525 15.463 39.6731 13 38.062 11.2963C36.4509 9.59256 34.0991 8.68519 31.2657 8.68519ZM34.5435 16.3333H28.1176C27.7101 16.3333 27.4509 16.1852 27.5065 16.0186L27.6176 15.7037C27.8028 15.1667 28.1176 14.6481 28.525 14.2407C29.025 13.7222 29.9324 13.1297 31.3583 13.1297C32.6176 13.1297 33.599 13.4815 34.3027 14.1852C34.7102 14.5926 34.988 15.1296 35.1546 15.7407C35.1546 15.7407 35.1917 15.8703 35.2287 16.037C35.2472 16.2037 34.9509 16.3333 34.5435 16.3333ZM96.1731 8.96297H92.0061C91.5993 8.96297 91.1358 9.27774 90.9694 9.66663L86.6731 21.1297C86.525 21.5185 86.2842 21.5185 86.1176 21.1297L81.8213 9.66663C81.6732 9.27774 81.2102 8.96297 80.7842 8.96297H76.6361C76.2287 8.96297 76.0065 9.27774 76.1546 9.66663L82.7472 26.537C83.2102 27.7778 83.5065 28.5925 83.5065 28.7037C83.5065 29.2593 83.2473 29.7778 82.8954 30.2778C82.5435 30.7777 82.099 31.0185 81.5991 31.0185C80.8399 31.0185 80.1176 30.7408 79.3953 30.2037C79.062 29.9444 78.6916 30.037 78.5435 30.4074L77.3213 33.5741C77.1732 33.9629 77.3213 34.4815 77.6547 34.7222C78.9509 35.5741 80.3027 36 81.7102 36C83.0806 36 84.3213 35.6297 85.4324 34.9074C86.5435 34.1667 87.5065 33.1482 88.0435 31.8334L89.1917 28.8889C89.3398 28.5 89.5806 27.8704 89.7472 27.4815C90.9324 24.4814 95.5251 12.6852 96.6915 9.68517C96.8031 9.27774 96.5988 8.96297 96.1731 8.96297ZM54.2102 8.7037C53.3769 8.81482 52.5435 9.07407 51.7287 9.50004C50.9139 9.92592 50.2101 10.426 49.6176 11C49.3583 11.2593 49.1546 11.1852 49.1546 10.8148V9.62964C49.1546 9.25929 48.8583 8.96297 48.488 8.96297H44.1361C43.7657 8.96297 43.4694 9.25929 43.4694 9.62964V27.5C43.4694 27.8704 43.7657 28.1667 44.1361 28.1667H48.488C48.8583 28.1667 49.1546 27.8704 49.1546 27.5V19.8889C49.1546 18.0371 49.5435 16.5556 50.3213 15.4259C51.0991 14.2963 52.2843 13.7407 53.8768 13.7407H54.3953C54.6732 13.7407 54.9139 13.4445 54.9139 13.074L54.8954 9.31482C54.8768 8.94444 54.5805 8.64814 54.2102 8.7037Z" fill="white"/>
</svg>
