<svg width="130" height="36" viewBox="0 0 130 36" fill="none" xmlns="http://www.w3.org/2000/svg">
<path d="M52.8281 23.3571H44V9H52.4296C55.3024 9 56.8542 10.2429 56.8542 12.4929C56.8542 14.2714 55.9315 15.5571 53.583 15.7286V15.9214C56.1831 16.1143 57.4413 17.4429 57.4413 19.3714C57.4413 21.8143 55.9734 23.3571 52.8281 23.3571ZM47.1454 11.8929V14.7H52.0732C53.2265 14.7 53.7088 14.2929 53.7088 13.3071C53.7088 12.3214 53.2055 11.8929 52.0312 11.8929H47.1454ZM47.1454 17.3571V20.4643H52.4506C53.7297 20.4643 54.254 20.0571 54.254 18.9C54.254 17.7643 53.7297 17.3571 52.4506 17.3571H47.1454Z" fill="#492975"/>
<path d="M61.5378 23.3571H58.3924V12.6214H61.3072V15.4714H61.4959C61.7895 13.7357 62.9008 12.4071 65.0187 12.4071C67.3673 12.4071 68.3319 14.0571 68.3319 16.1571V17.9357H65.1865V16.8214C65.1865 15.6429 64.7252 15.1286 63.446 15.1286C62.0411 15.1286 61.5378 15.7929 61.5378 17.1429V23.3571Z" fill="#492975"/>
<path d="M72.4905 23.5714C70.2258 23.5714 68.8628 22.5 68.8628 20.7C68.8628 19.1143 70.0161 18.1286 72.2598 17.8929L76.7682 17.4214V17.0143C76.7682 15.6214 76.1601 15.2357 74.4826 15.2357C72.8889 15.2357 72.2389 15.6643 72.2389 16.8857V16.9714H69.0725V16.9071C69.0725 14.25 71.2533 12.4071 74.7132 12.4071C78.2151 12.4071 79.8717 14.25 79.8717 17.0571V23.3571H76.936V20.8929H76.7682C76.2859 22.5643 74.8181 23.5714 72.4905 23.5714ZM72.0292 20.4857C72.0292 21.0643 72.4695 21.3 73.3922 21.3C75.531 21.3 76.6844 20.7857 76.7682 19.2643L73.1196 19.6929C72.3647 19.7571 72.0292 19.9714 72.0292 20.4857Z" fill="#492975"/>
<path d="M89.0778 23.3571H85.1985L80.4175 12.6214H83.9194L87.0648 20.2286H87.2745L90.4408 12.6214H93.8798L89.0778 23.3571Z" fill="#492975"/>
<path d="M100.078 23.5714C96.5765 23.5714 94.186 21.8143 94.186 18C94.186 14.5714 96.5555 12.4071 100.015 12.4071C103.454 12.4071 105.74 14.25 105.74 17.6143C105.74 18 105.698 18.2786 105.656 18.6429H97.1007C97.1846 20.2929 97.9395 21 99.9735 21C101.84 21 102.49 20.5071 102.49 19.5857V19.3714H105.635V19.6071C105.635 21.9429 103.412 23.5714 100.078 23.5714ZM99.9525 14.9143C98.0863 14.9143 97.2894 15.5571 97.1427 16.95H102.72C102.637 15.5357 101.798 14.9143 99.9525 14.9143Z" fill="#492975"/>
<path d="M110.01 23.3571H106.864V12.6214H109.779V15.4714H109.968C110.261 13.7357 111.373 12.4071 113.49 12.4071C115.839 12.4071 116.804 14.0571 116.804 16.1571V17.9357H113.658V16.8214C113.658 15.6429 113.197 15.1286 111.918 15.1286C110.513 15.1286 110.01 15.7929 110.01 17.1429V23.3571Z" fill="#492975"/>
<path d="M119.746 27H118.027V24.0857H120.606C121.382 24.0857 121.717 23.8714 121.927 23.4L116.789 12.6214H120.354L122.577 17.5286L123.458 20.0571H123.667L124.506 17.5071L126.498 12.6214H130L124.8 24.1286C123.793 26.3786 122.388 27 119.746 27Z" fill="#492975"/>
<circle cx="18" cy="18" r="18" fill="#492975"/>
<path opacity="0.2" d="M5.27208 30.7279C1.89642 27.3523 1.51746e-07 22.7739 0 18C-1.51746e-07 13.2261 1.89642 8.64773 5.27208 5.27208C8.64773 1.89642 13.2261 5.12165e-07 18 0C22.7739 -5.12165e-07 27.3523 1.89642 30.7279 5.27208L5.27208 30.7279Z" fill="white"/>
<g opacity="0.2">
<path d="M13.5768 0.547532C13.9897 0.44321 14.4083 0.353156 14.832 0.277924C13.4576 2.87144 12.1479 6.86026 12.5862 10.4755C12.805 12.2812 13.4575 13.979 14.7419 15.376C16.0264 16.773 17.9768 17.906 20.8554 18.5228C28.2994 20.118 31.9332 22.8104 33.2209 25.6719C33.4094 26.0907 33.5458 26.5089 33.6363 26.9231C33.3686 27.3912 33.0805 27.846 32.7732 28.2866C32.7828 27.5683 32.6427 26.8239 32.309 26.0822C31.2202 23.6627 27.9887 21.0741 20.6459 19.5006C17.6098 18.85 15.4586 17.6329 14.0058 16.0528C12.5528 14.4726 11.8322 12.5661 11.5934 10.5959C11.1625 7.04082 12.2922 3.23131 13.5768 0.547532Z" fill="white"/>
<path d="M10.4783 1.64215C11.169 1.32402 11.8833 1.04835 12.6179 0.818493C10.5007 2.87636 8.1048 6.10775 7.30175 9.5521C6.87801 11.3696 6.90095 13.2301 7.62347 15.0142C8.34564 16.7975 9.78547 18.5507 12.276 20.1222C18.7248 24.1912 21.2024 28.0199 21.4168 31.207C21.5445 33.1052 20.8661 34.7023 19.8409 35.907C19.3469 35.9572 18.8469 35.9874 18.3418 35.9968C19.6193 34.9123 20.554 33.2789 20.4191 31.2741C20.237 28.5679 18.0966 24.9773 11.7424 20.9679C9.11168 19.308 7.51231 17.4039 6.6966 15.3896C5.88124 13.3762 5.86759 11.2992 6.32787 9.32504C7.00444 6.42317 8.71165 3.70901 10.4783 1.64215Z" fill="white"/>
<path d="M14.943 35.7415C13.4416 33.9336 10.5473 32.1632 5.4589 30.912C5.03264 30.4979 4.62682 30.0629 4.24309 29.6086C4.30082 29.6216 4.35892 29.6343 4.41742 29.6468C11.098 31.0784 14.7098 33.3937 16.3111 35.9218C15.8498 35.8789 15.3935 35.8186 14.943 35.7415Z" fill="white"/>
<path d="M17.0284 35.9742C17.3501 35.9914 17.6741 36 18.0001 36C18.0456 36 18.0911 35.9999 18.1366 35.9995C18.8615 34.4524 19.0742 32.5681 18.2209 30.6719C16.9332 27.8104 13.2994 25.118 5.85541 23.5228C3.31728 22.9789 1.50076 22.0338 0.226074 20.8602C0.309009 21.3796 0.414165 21.8917 0.540539 22.3953C1.8576 23.3246 3.53858 24.0491 5.64588 24.5006C12.9887 26.0741 16.2202 28.6627 17.309 31.0822C18.0917 32.8217 17.8092 34.5757 17.0284 35.9742Z" fill="white"/>
<path d="M33.8827 9.52241C33.8491 9.51513 33.8154 9.50787 33.7816 9.50063C30.7455 8.85003 28.5943 7.63295 27.1415 6.05281C25.8741 4.67439 25.164 3.04775 24.8448 1.34707C25.2319 1.50638 25.6123 1.67879 25.9854 1.86376C26.3243 3.14689 26.9284 4.3436 27.8776 5.37598C29.0384 6.63846 30.743 7.68528 33.185 8.33045C33.4322 8.71792 33.665 9.11549 33.8827 9.52241Z" fill="white"/>
<path d="M35.3876 13.3273C35.5285 13.8528 35.6462 14.3878 35.7395 14.9311C33.9606 13.2262 30.8265 11.6108 25.6459 10.5006C22.6098 9.85003 20.4586 8.63295 19.0058 7.05281C17.5528 5.47258 16.8322 3.56611 16.5934 1.59587C16.5319 1.0883 16.5022 0.57555 16.5002 0.0616264C16.831 0.0343344 17.1644 0.0159907 17.5001 0.00683594C17.5001 0.500272 17.5274 0.991257 17.5861 1.47554C17.805 3.28122 18.4575 4.97904 19.7419 6.37598C21.0264 7.77301 22.9768 8.90598 25.8554 9.52282C30.2723 10.4693 33.3477 11.8021 35.3876 13.3273Z" fill="white"/>
<path d="M15.9477 0.115752C15.5797 0.157517 15.2151 0.210378 14.8542 0.273989C14.2416 2.36597 13.8964 4.69971 14.1671 6.93303C14.406 8.90327 15.1266 10.8097 16.5795 12.39C18.0323 13.9701 20.1835 15.1872 23.2196 15.8378C30.5624 17.4112 33.7939 19.9998 34.8827 22.4194C35.0193 22.7229 35.1234 23.0268 35.1981 23.3292C35.3667 22.7845 35.5102 22.2287 35.6271 21.6633C34.2073 18.9319 30.5725 16.3907 23.4291 14.86C20.5505 14.2431 18.6001 13.1102 17.3156 11.7131C16.0312 10.3162 15.3788 8.61838 15.1599 6.8127C14.8898 4.58422 15.2838 2.21381 15.9477 0.115752Z" fill="white"/>
</g>
<path fill-rule="evenodd" clip-rule="evenodd" d="M14.5 13C14.5 11.3431 13.1569 10 11.5 10V19.5C11.5 23.0899 14.4101 26 18 26C21.5899 26 24.5 23.0899 24.5 19.5C24.5 15.9101 21.5899 13 18 13H14.5ZM14.5 16H18C19.933 16 21.5 17.567 21.5 19.5C21.5 21.433 19.933 23 18 23C16.067 23 14.5 21.433 14.5 19.5V16Z" fill="white"/>
</svg>
