<svg width="156" height="156" viewBox="0 0 156 156" fill="none" xmlns="http://www.w3.org/2000/svg">
<g filter="url(#filter0_d_12_66)">
<rect x="33" y="17" width="90" height="90" rx="15" fill="#627193"/>
</g>
<path d="M83.8333 65.3333H82.5167L82.05 64.8833C83.7398 62.9234 84.6685 60.4212 84.6667 57.8333C84.6667 55.6907 84.0313 53.5962 82.8409 51.8147C81.6505 50.0331 79.9586 48.6446 77.9791 47.8246C75.9995 47.0047 73.8213 46.7902 71.7199 47.2082C69.6184 47.6262 67.6881 48.6579 66.173 50.173C64.6579 51.6881 63.6262 53.6184 63.2082 55.7199C62.7902 57.8213 63.0047 59.9995 63.8246 61.9791C64.6446 63.9586 66.0331 65.6505 67.8147 66.8409C69.5962 68.0313 71.6907 68.6667 73.8333 68.6667C76.5167 68.6667 78.9833 67.6833 80.8833 66.05L81.3333 66.5167V67.8333L89.6667 76.15L92.15 73.6667L83.8333 65.3333ZM73.8333 65.3333C69.6833 65.3333 66.3333 61.9833 66.3333 57.8333C66.3333 53.6833 69.6833 50.3333 73.8333 50.3333C77.9833 50.3333 81.3333 53.6833 81.3333 57.8333C81.3333 61.9833 77.9833 65.3333 73.8333 65.3333Z" fill="white"/>
<defs>
<filter id="filter0_d_12_66" x="0" y="0" width="156" height="156" filterUnits="userSpaceOnUse" color-interpolation-filters="sRGB">
<feFlood flood-opacity="0" result="BackgroundImageFix"/>
<feColorMatrix in="SourceAlpha" type="matrix" values="0 0 0 0 0 0 0 0 0 0 0 0 0 0 0 0 0 0 127 0" result="hardAlpha"/>
<feMorphology radius="12" operator="erode" in="SourceAlpha" result="effect1_dropShadow_12_66"/>
<feOffset dy="16"/>
<feGaussianBlur stdDeviation="22.5"/>
<feColorMatrix type="matrix" values="0 0 0 0 1 0 0 0 0 0.337255 0 0 0 0 0.439216 0 0 0 0.2 0"/>
<feBlend mode="normal" in2="BackgroundImageFix" result="effect1_dropShadow_12_66"/>
<feBlend mode="normal" in="SourceGraphic" in2="effect1_dropShadow_12_66" result="shape"/>
</filter>
</defs>
</svg>
