<svg width="156" height="156" viewBox="0 0 156 156" fill="none" xmlns="http://www.w3.org/2000/svg">
<g filter="url(#filter0_d_8_348)">
<rect x="33" y="17" width="90" height="90" rx="15" fill="#492975"/>
</g>
<g clip-path="url(#clip0_8_348)">
<path d="M94.4897 58.6077L78.8891 43.0048C77.969 42.0869 76.4806 42.0978 75.5726 43.0036C74.6594 43.9191 74.6594 45.4057 75.5726 46.3201L91.1755 61.9219C92.0896 62.836 93.5756 62.836 94.4897 61.9219C95.4063 61.0053 95.4063 59.5241 94.4897 58.6077Z" fill="white"/>
<path d="M74.4155 48.4771L74.298 49.0656C73.4709 53.203 71.4608 57.1336 68.7419 60.3193L77.23 68.8073C80.4153 66.089 84.2917 64.0249 88.4292 63.1968L89.0189 63.0793L74.4155 48.4771Z" fill="white"/>
<path d="M67.1857 62.0771L61.3847 67.877C60.014 69.2477 60.0083 71.473 61.3847 72.8494L64.6989 76.1637C66.0696 77.5344 68.2949 77.54 69.6713 76.1637L75.4718 70.3632L67.1857 62.0771ZM68.0143 71.1924C67.5565 71.6501 66.8149 71.6501 66.3572 71.1924C65.8994 70.7347 65.8994 69.993 66.3572 69.5353L68.0143 67.8782C68.472 67.4204 69.2137 67.4204 69.6714 67.8782C70.1291 68.3359 70.1291 69.0776 69.6714 69.5353L68.0143 71.1924Z" fill="white"/>
<path d="M80.3645 76.7874L81.9586 75.1932C83.3351 73.817 83.3306 71.5916 81.9587 70.222L80.7747 69.0371C80.1202 69.4767 79.4952 69.9544 78.8875 70.4641L80.3016 71.8802C80.7583 72.3345 80.7615 73.0739 80.3016 73.5362L78.6811 75.1567L76.2997 72.8494L72.9854 76.1638L78.3023 81.3159C79.2097 82.2256 80.6994 82.2307 81.6154 81.3147C82.5297 80.4003 82.5297 78.9138 81.6154 77.9993L80.3645 76.7874Z" fill="white"/>
<path d="M85.0989 42C84.4511 42 83.927 42.5241 83.927 43.1719V45.5156C83.927 46.1634 84.4511 46.6875 85.0989 46.6875C85.7466 46.6875 86.2708 46.1634 86.2708 45.5156V43.1719C86.2708 42.5241 85.7466 42 85.0989 42Z" fill="white"/>
<path d="M94.4739 51.375H92.1301C91.4824 51.375 90.9583 51.8991 90.9583 52.5469C90.9583 53.1946 91.4824 53.7188 92.1301 53.7188H94.4739C95.1216 53.7188 95.6458 53.1946 95.6458 52.5469C95.6458 51.8991 95.1216 51.375 94.4739 51.375Z" fill="white"/>
<path d="M92.9587 44.6871C92.5009 44.2293 91.7593 44.2293 91.3016 44.6871L88.9578 47.0308C88.5001 47.4885 88.5001 48.2302 88.9578 48.6879C89.4155 49.1457 90.1572 49.1457 90.6149 48.6879L92.9587 46.3442C93.4164 45.8864 93.4164 45.1448 92.9587 44.6871Z" fill="white"/>
</g>
<defs>
<filter id="filter0_d_8_348" x="0" y="0" width="156" height="156" filterUnits="userSpaceOnUse" color-interpolation-filters="sRGB">
<feFlood flood-opacity="0" result="BackgroundImageFix"/>
<feColorMatrix in="SourceAlpha" type="matrix" values="0 0 0 0 0 0 0 0 0 0 0 0 0 0 0 0 0 0 127 0" result="hardAlpha"/>
<feMorphology radius="12" operator="erode" in="SourceAlpha" result="effect1_dropShadow_8_348"/>
<feOffset dy="16"/>
<feGaussianBlur stdDeviation="22.5"/>
<feColorMatrix type="matrix" values="0 0 0 0 0.235294 0 0 0 0 0.313726 0 0 0 0 0.878431 0 0 0 0.2 0"/>
<feBlend mode="normal" in2="BackgroundImageFix" result="effect1_dropShadow_8_348"/>
<feBlend mode="normal" in="SourceGraphic" in2="effect1_dropShadow_8_348" result="shape"/>
</filter>
<clipPath id="clip0_8_348">
<rect width="40" height="40" fill="white" transform="translate(58 42)"/>
</clipPath>
</defs>
</svg>
