<svg width="156" height="156" viewBox="0 0 156 156" fill="none" xmlns="http://www.w3.org/2000/svg">
<g filter="url(#filter0_d_12_55)">
<rect x="33" y="17" width="90" height="90" rx="15" fill="#3B7EE2"/>
</g>
<path d="M81.3515 43.8994C80.1874 43.9229 79.3515 44.1494 78.7968 44.5557L71.1952 48.626L66.9687 54.3752C66.0781 55.7502 66.7109 58.4064 69.4921 56.7033L72.539 52.6877C76.4062 49.3525 84.2968 50.883 80.5546 57.5783C78.7187 61.4533 79.5781 63.3439 81.9452 64.1408L83.0234 60.5158C84.8906 56.3127 88.3749 55.5549 88.2343 52.1643L96.6093 52.7658L96.5312 44.0088L81.3515 43.8994ZM77.1249 51.9768C75.7656 51.9533 74.4296 52.5158 73.4609 53.3283L70.4062 57.3439C71.2421 58.008 72.0859 57.6486 72.9218 56.8439C73.9062 57.3439 74.6718 56.5705 75.2968 55.0236C75.5546 53.9689 75.9374 53.2268 77.1249 51.9768ZM70.9062 59.4768C70.8749 59.4768 70.8359 59.4768 70.8046 59.4846C70.5468 59.5393 70.2421 59.8127 70.039 60.4377C69.8281 61.0627 69.7812 61.9533 69.9687 62.9064C70.1562 63.8518 70.5468 64.6564 70.9843 65.1564C71.4062 65.6486 71.7968 65.7893 72.0546 65.7346C72.3202 65.6877 72.6171 65.4064 72.8202 64.7893C73.0312 64.1643 73.0859 63.2658 72.8984 62.3205C72.7031 61.3674 72.3124 60.5627 71.8827 60.0705C71.5077 59.633 71.164 59.4768 70.9062 59.4768ZM77.3593 67.8205C76.7421 67.8283 75.9687 68.0236 75.2109 68.3908C74.3437 68.8205 73.664 69.4143 73.2968 69.9611C72.9296 70.5002 72.8984 70.9064 73.0156 71.1486C73.1327 71.383 73.4765 71.6096 74.1327 71.6408C74.789 71.6799 75.6718 71.5002 76.539 71.0705C77.4062 70.6408 78.0859 70.0549 78.4531 69.508C78.8202 68.9689 78.8515 68.5549 78.7343 68.3205C78.6171 68.0783 78.2734 67.8596 77.6171 67.8283C77.5312 67.8205 77.4531 67.8205 77.3593 67.8205ZM69.7343 75.2893C69.3671 75.2971 69.0312 75.3518 68.7343 75.4377C68.0702 75.633 67.6874 75.9846 67.5624 76.3986C67.4296 76.8205 67.5624 77.3205 68.0077 77.8596C68.4609 78.3908 69.2187 78.8986 70.1562 79.1799C71.0859 79.4611 71.9921 79.4533 72.664 79.2502C73.3359 79.0549 73.7187 78.7033 73.8437 78.2893C73.9687 77.8674 73.8437 77.3674 73.3906 76.8283C72.9452 76.2971 72.1874 75.7893 71.2499 75.508C70.7187 75.3518 70.2031 75.2814 69.7343 75.2893Z" fill="white"/>
<defs>
<filter id="filter0_d_12_55" x="0" y="0" width="156" height="156" filterUnits="userSpaceOnUse" color-interpolation-filters="sRGB">
<feFlood flood-opacity="0" result="BackgroundImageFix"/>
<feColorMatrix in="SourceAlpha" type="matrix" values="0 0 0 0 0 0 0 0 0 0 0 0 0 0 0 0 0 0 127 0" result="hardAlpha"/>
<feMorphology radius="12" operator="erode" in="SourceAlpha" result="effect1_dropShadow_12_55"/>
<feOffset dy="16"/>
<feGaussianBlur stdDeviation="22.5"/>
<feColorMatrix type="matrix" values="0 0 0 0 0.992157 0 0 0 0 0.705882 0 0 0 0 0 0 0 0 0.2 0"/>
<feBlend mode="normal" in2="BackgroundImageFix" result="effect1_dropShadow_12_55"/>
<feBlend mode="normal" in="SourceGraphic" in2="effect1_dropShadow_12_55" result="shape"/>
</filter>
</defs>
</svg>
