<svg width="156" height="156" viewBox="0 0 156 156" fill="none" xmlns="http://www.w3.org/2000/svg">
<g filter="url(#filter0_d_8_362)">
<rect x="33" y="17" width="90" height="90" rx="15" fill="#FDB400"/>
</g>
<path d="M90.3398 51.3721H98.0001V71.879H90.3398V51.3721Z" fill="white"/>
<path d="M95.2151 44.4344C95.0152 44.0408 94.6111 43.793 94.1702 43.793C93.7289 43.793 93.3248 44.0408 93.1252 44.4344L90.7925 49.0286H97.5475L95.2151 44.4344Z" fill="white"/>
<path d="M90.3398 77.1917C90.3398 78.9077 91.7461 80.3039 93.4746 80.3039H94.8653C96.5938 80.3039 98.0001 78.9077 98.0001 77.1917V74.2227H90.3398V77.1917Z" fill="white"/>
<path d="M82.8859 43.7188H63.0311C60.2571 43.7188 58 45.9755 58 48.7499V75.2733C58 78.0474 60.2571 80.3041 63.0311 80.3041H82.8859C85.6599 80.3041 87.917 78.0474 87.917 75.2733V48.7499C87.917 45.9755 85.6599 43.7188 82.8859 43.7188ZM70.9904 72.5981H63.9967C63.3494 72.5981 62.8248 72.0735 62.8248 71.4263C62.8248 70.779 63.3494 70.2544 63.9967 70.2544H70.9904C71.6377 70.2544 72.1623 70.779 72.1623 71.4263C72.1623 72.0735 71.6377 72.5981 70.9904 72.5981ZM70.9904 67.8319H63.9967C63.3494 67.8319 62.8248 67.3073 62.8248 66.66C62.8248 66.0128 63.3494 65.4882 63.9967 65.4882H70.9904C71.6377 65.4882 72.1623 66.0128 72.1623 66.66C72.1623 67.3073 71.6377 67.8319 70.9904 67.8319ZM70.9904 63.1441H63.9967C63.3494 63.1441 62.8248 62.6195 62.8248 61.9722C62.8248 61.325 63.3494 60.8004 63.9967 60.8004H70.9904C71.6377 60.8004 72.1623 61.325 72.1623 61.9722C72.1623 62.6195 71.6377 63.1441 70.9904 63.1441ZM70.9904 58.4563H63.9967C63.3494 58.4563 62.8248 57.9317 62.8248 57.2844C62.8248 56.6371 63.3494 56.1125 63.9967 56.1125H70.9904C71.6377 56.1125 72.1623 56.6371 72.1623 57.2844C72.1623 57.9317 71.6377 58.4563 70.9904 58.4563ZM70.9904 53.7685H63.9967C63.3494 53.7685 62.8248 53.2439 62.8248 52.5966C62.8248 51.9493 63.3494 51.4247 63.9967 51.4247H70.9904C71.6377 51.4247 72.1623 51.9493 72.1623 52.5966C72.1623 53.2439 71.6377 53.7685 70.9904 53.7685ZM78.2948 72.5981H74.9263C74.279 72.5981 73.7544 72.0735 73.7544 71.4263C73.7544 70.779 74.279 70.2544 74.9263 70.2544H78.2948C78.9421 70.2544 79.4667 70.779 79.4667 71.4263C79.4667 72.0735 78.9421 72.5981 78.2948 72.5981ZM81.9203 58.4563H74.9263C74.2793 58.4563 73.7544 57.9317 73.7544 57.2844C73.7544 56.6371 74.2793 56.1125 74.9263 56.1125H81.9203C82.5676 56.1125 83.0922 56.6371 83.0922 57.2844C83.0922 57.9317 82.5676 58.4563 81.9203 58.4563ZM81.9203 53.7685H74.9263C74.2793 53.7685 73.7544 53.2439 73.7544 52.5966C73.7544 51.9493 74.2793 51.4247 74.9263 51.4247H81.9203C82.5676 51.4247 83.0922 51.9493 83.0922 52.5966C83.0922 53.2439 82.5676 53.7685 81.9203 53.7685Z" fill="white"/>
<defs>
<filter id="filter0_d_8_362" x="0" y="0" width="156" height="156" filterUnits="userSpaceOnUse" color-interpolation-filters="sRGB">
<feFlood flood-opacity="0" result="BackgroundImageFix"/>
<feColorMatrix in="SourceAlpha" type="matrix" values="0 0 0 0 0 0 0 0 0 0 0 0 0 0 0 0 0 0 127 0" result="hardAlpha"/>
<feMorphology radius="12" operator="erode" in="SourceAlpha" result="effect1_dropShadow_8_362"/>
<feOffset dy="16"/>
<feGaussianBlur stdDeviation="22.5"/>
<feColorMatrix type="matrix" values="0 0 0 0 0.992157 0 0 0 0 0.705882 0 0 0 0 0 0 0 0 0.2 0"/>
<feBlend mode="normal" in2="BackgroundImageFix" result="effect1_dropShadow_8_362"/>
<feBlend mode="normal" in="SourceGraphic" in2="effect1_dropShadow_8_362" result="shape"/>
</filter>
</defs>
</svg>
