<svg width="196" height="85" viewBox="0 0 196 85" fill="none" xmlns="http://www.w3.org/2000/svg">
<path d="M40 74C32.1864 74 24.5733 71.5264 18.2519 66.9336C11.9306 62.3409 7.22545 55.8648 4.81091 48.4336C2.39636 41.0024 2.39636 32.9976 4.81091 25.5664C7.22546 18.1352 11.9306 11.6591 18.252 7.06637C24.5733 2.47363 32.1864 -1.60679e-06 40 0C47.8136 1.6068e-06 55.4267 2.47364 61.7481 7.06638C68.0694 11.6591 72.7746 18.1352 75.1891 25.5664C77.6036 32.9976 77.6036 41.0024 75.1891 48.4336L40 37V74Z" fill="#FF5670"/>
<g filter="url(#filter0_d_8_413)">
<circle cx="40" cy="37" r="28" fill="white"/>
</g>
<path d="M46.5 36.134C47.1667 36.5189 47.1667 37.4811 46.5 37.866L37.5 43.0622C36.8333 43.4471 36 42.966 36 42.1962L36 31.8038C36 31.034 36.8333 30.5529 37.5 30.9378L46.5 36.134Z" fill="#627193"/>
<path d="M92.022 46L87.576 33.31H89.34L93.102 44.506H92.454L96.45 33.31H97.764L101.508 44.506H100.932L104.82 33.31H106.476L101.994 46H100.536L96.882 35.29H97.26L93.462 46H92.022ZM110.664 46.162C109.872 46.162 109.176 45.976 108.576 45.604C107.976 45.232 107.508 44.692 107.172 43.984C106.836 43.276 106.668 42.436 106.668 41.464C106.668 40.492 106.836 39.658 107.172 38.962C107.508 38.254 107.976 37.714 108.576 37.342C109.176 36.97 109.872 36.784 110.664 36.784C111.468 36.784 112.164 36.988 112.752 37.396C113.352 37.792 113.748 38.338 113.94 39.034H113.724L113.922 36.946H115.506C115.47 37.306 115.434 37.666 115.398 38.026C115.374 38.386 115.362 38.74 115.362 39.088V46H113.724V43.93H113.922C113.73 44.614 113.334 45.16 112.734 45.568C112.146 45.964 111.456 46.162 110.664 46.162ZM111.042 44.866C111.858 44.866 112.512 44.578 113.004 44.002C113.496 43.426 113.742 42.58 113.742 41.464C113.742 40.348 113.496 39.508 113.004 38.944C112.512 38.38 111.858 38.098 111.042 38.098C110.226 38.098 109.566 38.38 109.062 38.944C108.57 39.508 108.324 40.348 108.324 41.464C108.324 42.58 108.57 43.426 109.062 44.002C109.554 44.578 110.214 44.866 111.042 44.866ZM121.31 46.162C120.362 46.162 119.642 45.904 119.15 45.388C118.67 44.86 118.43 44.068 118.43 43.012V38.206H116.666V36.946H118.43V34.516L120.068 34.066V36.946H122.624V38.206H120.068V42.868C120.068 43.564 120.188 44.062 120.428 44.362C120.68 44.65 121.04 44.794 121.508 44.794C121.748 44.794 121.952 44.776 122.12 44.74C122.3 44.692 122.462 44.638 122.606 44.578V45.928C122.426 46 122.216 46.054 121.976 46.09C121.748 46.138 121.526 46.162 121.31 46.162ZM127.962 46.162C127.062 46.162 126.282 45.976 125.622 45.604C124.962 45.22 124.446 44.674 124.074 43.966C123.714 43.246 123.534 42.394 123.534 41.41C123.534 40.438 123.72 39.61 124.092 38.926C124.464 38.23 124.98 37.702 125.64 37.342C126.3 36.97 127.074 36.784 127.962 36.784C128.55 36.784 129.12 36.886 129.672 37.09C130.224 37.282 130.674 37.564 131.022 37.936L130.464 39.088C130.116 38.752 129.732 38.506 129.312 38.35C128.892 38.182 128.478 38.098 128.07 38.098C127.182 38.098 126.486 38.386 125.982 38.962C125.478 39.526 125.226 40.348 125.226 41.428C125.226 42.52 125.478 43.36 125.982 43.948C126.486 44.536 127.182 44.83 128.07 44.83C128.466 44.83 128.874 44.752 129.294 44.596C129.714 44.44 130.104 44.194 130.464 43.858L131.022 44.992C130.662 45.376 130.2 45.67 129.636 45.874C129.084 46.066 128.526 46.162 127.962 46.162ZM132.841 46V32.752H134.479V38.908H134.245C134.509 38.212 134.935 37.684 135.523 37.324C136.111 36.964 136.789 36.784 137.557 36.784C138.649 36.784 139.453 37.078 139.969 37.666C140.497 38.254 140.761 39.142 140.761 40.33V46H139.123V40.42C139.123 39.616 138.967 39.034 138.655 38.674C138.343 38.302 137.833 38.116 137.125 38.116C136.333 38.116 135.691 38.362 135.199 38.854C134.719 39.346 134.479 40 134.479 40.816V46H132.841ZM148.007 46V33.31H152.309C153.725 33.31 154.919 33.556 155.891 34.048C156.875 34.54 157.619 35.26 158.123 36.208C158.627 37.144 158.879 38.29 158.879 39.646C158.879 41.002 158.627 42.154 158.123 43.102C157.619 44.05 156.875 44.77 155.891 45.262C154.919 45.754 153.725 46 152.309 46H148.007ZM149.681 44.578H152.183C153.875 44.578 155.129 44.17 155.945 43.354C156.761 42.538 157.169 41.302 157.169 39.646C157.169 37.99 156.761 36.76 155.945 35.956C155.129 35.14 153.875 34.732 152.183 34.732H149.681V44.578ZM165.269 46.162C163.829 46.162 162.689 45.748 161.849 44.92C161.021 44.092 160.607 42.952 160.607 41.5C160.607 40.54 160.787 39.712 161.147 39.016C161.519 38.308 162.029 37.762 162.677 37.378C163.325 36.982 164.081 36.784 164.945 36.784C165.773 36.784 166.475 36.964 167.051 37.324C167.627 37.672 168.065 38.17 168.365 38.818C168.665 39.466 168.815 40.234 168.815 41.122V41.662H161.885V40.69H167.699L167.393 40.924C167.393 39.988 167.183 39.262 166.763 38.746C166.355 38.23 165.749 37.972 164.945 37.972C164.069 37.972 163.391 38.278 162.911 38.89C162.431 39.49 162.191 40.312 162.191 41.356V41.518C162.191 42.622 162.461 43.456 163.001 44.02C163.553 44.584 164.315 44.866 165.287 44.866C165.827 44.866 166.331 44.788 166.799 44.632C167.267 44.476 167.717 44.218 168.149 43.858L168.689 44.992C168.281 45.364 167.771 45.652 167.159 45.856C166.559 46.06 165.929 46.162 165.269 46.162ZM170.776 46V39.088C170.776 38.74 170.764 38.386 170.74 38.026C170.716 37.666 170.68 37.306 170.632 36.946H172.216L172.396 38.89H172.18C172.42 38.218 172.804 37.702 173.332 37.342C173.86 36.97 174.49 36.784 175.222 36.784C175.966 36.784 176.578 36.964 177.058 37.324C177.538 37.672 177.862 38.224 178.03 38.98H177.76C177.988 38.308 178.39 37.774 178.966 37.378C179.542 36.982 180.214 36.784 180.982 36.784C181.978 36.784 182.728 37.078 183.232 37.666C183.736 38.242 183.988 39.142 183.988 40.366V46H182.35V40.456C182.35 39.628 182.206 39.034 181.918 38.674C181.63 38.302 181.174 38.116 180.55 38.116C179.818 38.116 179.242 38.368 178.822 38.872C178.402 39.364 178.192 40.036 178.192 40.888V46H176.554V40.456C176.554 39.628 176.41 39.034 176.122 38.674C175.846 38.302 175.39 38.116 174.754 38.116C174.022 38.116 173.446 38.368 173.026 38.872C172.618 39.364 172.414 40.036 172.414 40.888V46H170.776ZM190.302 46.162C189.414 46.162 188.646 45.976 187.998 45.604C187.35 45.22 186.846 44.68 186.486 43.984C186.126 43.276 185.946 42.436 185.946 41.464C185.946 40.504 186.126 39.676 186.486 38.98C186.846 38.272 187.35 37.732 187.998 37.36C188.646 36.976 189.414 36.784 190.302 36.784C191.19 36.784 191.958 36.976 192.606 37.36C193.266 37.732 193.77 38.272 194.118 38.98C194.478 39.676 194.658 40.504 194.658 41.464C194.658 42.436 194.478 43.276 194.118 43.984C193.77 44.68 193.266 45.22 192.606 45.604C191.958 45.976 191.19 46.162 190.302 46.162ZM190.302 44.866C191.118 44.866 191.772 44.578 192.264 44.002C192.756 43.426 193.002 42.58 193.002 41.464C193.002 40.348 192.756 39.508 192.264 38.944C191.772 38.38 191.118 38.098 190.302 38.098C189.474 38.098 188.814 38.38 188.322 38.944C187.842 39.508 187.602 40.348 187.602 41.464C187.602 42.58 187.842 43.426 188.322 44.002C188.814 44.578 189.474 44.866 190.302 44.866Z" fill="#627193"/>
<defs>
<filter id="filter0_d_8_413" x="0" y="5" width="80" height="80" filterUnits="userSpaceOnUse" color-interpolation-filters="sRGB">
<feFlood flood-opacity="0" result="BackgroundImageFix"/>
<feColorMatrix in="SourceAlpha" type="matrix" values="0 0 0 0 0 0 0 0 0 0 0 0 0 0 0 0 0 0 127 0" result="hardAlpha"/>
<feOffset dy="8"/>
<feGaussianBlur stdDeviation="6"/>
<feColorMatrix type="matrix" values="0 0 0 0 0.384314 0 0 0 0 0.443137 0 0 0 0 0.576471 0 0 0 0.1 0"/>
<feBlend mode="normal" in2="BackgroundImageFix" result="effect1_dropShadow_8_413"/>
<feBlend mode="normal" in="SourceGraphic" in2="effect1_dropShadow_8_413" result="shape"/>
</filter>
</defs>
</svg>
